<?xml version="1.0" encoding="utf-8"?>
<svg version="1.1" xmlns:xlink="http://www.w3.org/1999/xlink" width="320px" height="320px" xmlns="http://www.w3.org/2000/svg">
  <g transform="matrix(1 0 0 1 -56 -80 )">
    <path d="M 216.875 61.875  C 199.513888888889 51.7361111111111  180.555555555556 46.6666666666667  160 46.6666666666667  C 139.444444444444 46.6666666666667  120.486111111111 51.7361111111111  103.125 61.875  C 85.7638888888889 72.0138888888889  72.0138888888889 85.7638888888889  61.875 103.125  C 51.7361111111111 120.486111111111  46.6666666666667 139.444444444444  46.6666666666667 160  C 46.6666666666667 180.555555555556  51.7361111111111 199.513888888889  61.875 216.875  C 72.0138888888889 234.236111111111  85.7638888888889 247.986111111111  103.125 258.125  C 120.486111111111 268.263888888889  139.444444444444 273.333333333333  160 273.333333333333  C 180.555555555556 273.333333333333  199.513888888889 268.263888888889  216.875 258.125  C 234.236111111111 247.986111111111  247.986111111111 234.236111111111  258.125 216.875  C 268.263888888889 199.513888888889  273.333333333333 180.555555555556  273.333333333333 160  C 273.333333333333 139.444444444444  268.263888888889 120.486111111111  258.125 103.125  C 247.986111111111 85.7638888888889  234.236111111111 72.0138888888889  216.875 61.875  Z M 298.541666666667 79.6875  C 312.847222222222 104.201388888889  320 130.972222222222  320 160  C 320 189.027777777778  312.847222222222 215.798611111111  298.541666666667 240.3125  C 284.236111111111 264.826388888889  264.826388888889 284.236111111111  240.3125 298.541666666667  C 215.798611111111 312.847222222222  189.027777777778 320  160 320  C 130.972222222222 320  104.201388888889 312.847222222222  79.6875 298.541666666667  C 55.1736111111111 284.236111111111  35.7638888888889 264.826388888889  21.4583333333333 240.3125  C 7.15277777777778 215.798611111111  0 189.027777777778  0 160  C 0 130.972222222222  7.15277777777778 104.201388888889  21.4583333333333 79.6875  C 35.7638888888889 55.1736111111111  55.1736111111111 35.7638888888889  79.6875 21.4583333333333  C 104.201388888889 7.15277777777775  130.972222222222 0  160 0  C 189.027777777778 0  215.798611111111 7.15277777777775  240.3125 21.4583333333333  C 264.826388888889 35.7638888888889  284.236111111111 55.1736111111111  298.541666666667 79.6875  Z " fill-rule="nonzero" fill="#f59a23" stroke="none" transform="matrix(1 0 0 1 56 80 )" />
  </g>
</svg>