<?xml version="1.0" encoding="utf-8"?>
<svg version="1.1" xmlns:xlink="http://www.w3.org/1999/xlink" width="288px" height="288px" xmlns="http://www.w3.org/2000/svg">
  <g transform="matrix(1 0 0 1 -72 -96 )">
    <path d="M 195.1875 55.6875  C 179.5625 46.5625  162.5 42  144 42  C 125.5 42  108.4375 46.5625  92.8125 55.6875  C 77.1875 64.8125  64.8125 77.1875  55.6875 92.8125  C 46.5625 108.4375  42 125.5  42 144  C 42 162.5  46.5625 179.5625  55.6875 195.1875  C 64.8125 210.8125  77.1875 223.1875  92.8125 232.3125  C 108.4375 241.4375  125.5 246  144 246  C 162.5 246  179.5625 241.4375  195.1875 232.3125  C 210.8125 223.1875  223.1875 210.8125  232.3125 195.1875  C 241.4375 179.5625  246 162.5  246 144  C 246 125.5  241.4375 108.4375  232.3125 92.8125  C 223.1875 77.1875  210.8125 64.8125  195.1875 55.6875  Z M 268.6875 71.71875  C 281.5625 93.78125  288 117.875  288 144  C 288 170.125  281.5625 194.21875  268.6875 216.28125  C 255.8125 238.34375  238.34375 255.8125  216.28125 268.6875  C 194.21875 281.5625  170.125 288  144 288  C 117.875 288  93.78125 281.5625  71.71875 268.6875  C 49.65625 255.8125  32.1875 238.34375  19.3125 216.28125  C 6.4375 194.21875  0 170.125  0 144  C 0 117.875  6.4375 93.78125  19.3125 71.71875  C 32.1875 49.65625  49.65625 32.1875  71.71875 19.3125  C 93.78125 6.43749999999998  117.875 0  144 0  C 170.125 0  194.21875 6.43749999999998  216.28125 19.3125  C 238.34375 32.1875  255.8125 49.65625  268.6875 71.71875  Z " fill-rule="nonzero" fill="#ffffff" stroke="none" transform="matrix(1 0 0 1 72 96 )" />
  </g>
</svg>