<?xml version="1.0" encoding="utf-8"?>
<svg version="1.1" xmlns:xlink="http://www.w3.org/1999/xlink" width="30px" height="30px" xmlns="http://www.w3.org/2000/svg">
  <g transform="matrix(1 0 0 1 -37 -30 )">
    <path d="M 52 30  C 60.4 30  67 36.6  67 45  C 67 53.4  60.4 60  52 60  C 43.6 60  37 53.4  37 45  C 37 36.6  43.6 30  52 30  Z " fill-rule="nonzero" fill="#009dd9" stroke="none" />
    <path d="M 52 30.5  C 60.12 30.5  66.5 36.88  66.5 45  C 66.5 53.12  60.12 59.5  52 59.5  C 43.88 59.5  37.5 53.12  37.5 45  C 37.5 36.88  43.88 30.5  52 30.5  Z " stroke-width="1" stroke="#ffffff" fill="none" />
  </g>
</svg>