<?xml version="1.0" encoding="utf-8"?>
<svg version="1.1" xmlns:xlink="http://www.w3.org/1999/xlink" width="30px" height="30px" xmlns="http://www.w3.org/2000/svg">
  <g transform="matrix(1 0 0 1 -240 -30 )">
    <path d="M 255 30  C 263.4 30  270 36.6  270 45  C 270 53.4  263.4 60  255 60  C 246.6 60  240 53.4  240 45  C 240 36.6  246.6 30  255 30  Z " fill-rule="nonzero" fill="#d93a00" stroke="none" />
    <path d="M 255 30.5  C 263.12 30.5  269.5 36.88  269.5 45  C 269.5 53.12  263.12 59.5  255 59.5  C 246.88 59.5  240.5 53.12  240.5 45  C 240.5 36.88  246.88 30.5  255 30.5  Z " stroke-width="1" stroke="#ffffff" fill="none" />
  </g>
</svg>