<?xml version="1.0" encoding="utf-8"?>
<svg version="1.1" xmlns:xlink="http://www.w3.org/1999/xlink" width="15px" height="17px" xmlns="http://www.w3.org/2000/svg">
  <g transform="matrix(1 0 0 1 -248 -36 )">
    <path d="M 11.8269230769231 8.92689732142857  C 11.8269230769231 9.00911458333333  11.7998798076923 9.08184523809524  11.7457932692308 9.14508928571429  L 7.13040865384615 14.0022321428571  C 7.0703125 14.0591517857143  7.00120192307692 14.0876116071429  6.92307692307692 14.0876116071429  C 6.84495192307692 14.0876116071429  6.77584134615385 14.0591517857143  6.71574519230769 14.0022321428571  L 4.11959134615385 11.2700892857143  C 4.06550480769231 11.2068452380952  4.03846153846154 11.1341145833333  4.03846153846154 11.0518973214286  C 4.03846153846154 10.9696800595238  4.06550480769231 10.9001116071429  4.11959134615385 10.8431919642857  L 4.53425480769231 10.4068080357143  C 4.58834134615385 10.3498883928571  4.65444711538462 10.3214285714286  4.73257211538462 10.3214285714286  C 4.81069711538462 10.3214285714286  4.87980769230769 10.3498883928571  4.93990384615385 10.4068080357143  L 6.92307692307692 12.4938616071429  L 10.9254807692308 8.28180803571429  C 10.9855769230769 8.22488839285714  11.0546875 8.19642857142857  11.1328125 8.19642857142857  C 11.2109375 8.19642857142857  11.2770432692308 8.22488839285714  11.3311298076923 8.28180803571429  L 11.7457932692308 8.71819196428571  C 11.7998798076923 8.77511160714286  11.8269230769231 8.84468005952381  11.8269230769231 8.92689732142857  Z M 1.15384615384615 6  L 1.15384615384615 15.7857142857143  L 13.8461538461538 15.7857142857143  L 13.8461538461538 6  L 1.15384615384615 6  Z M 4.53425480769231 4.46819196428571  C 4.58834134615385 4.41127232142857  4.61538461538462 4.33854166666667  4.61538461538462 4.25  L 4.61538461538462 1.51785714285714  C 4.61538461538462 1.42931547619047  4.58834134615385 1.35658482142857  4.53425480769231 1.29966517857143  C 4.48016826923077 1.24274553571429  4.41105769230769 1.21428571428571  4.32692307692308 1.21428571428571  L 3.75 1.21428571428571  C 3.66586538461539 1.21428571428571  3.59675480769231 1.24274553571429  3.54266826923077 1.29966517857143  C 3.48858173076923 1.35658482142857  3.46153846153846 1.42931547619047  3.46153846153846 1.51785714285714  L 3.46153846153846 4.25  C 3.46153846153846 4.33854166666667  3.48858173076923 4.41127232142857  3.54266826923077 4.46819196428571  C 3.59675480769231 4.52511160714286  3.66586538461539 4.55357142857143  3.75 4.55357142857143  L 4.32692307692308 4.55357142857143  C 4.41105769230769 4.55357142857143  4.48016826923077 4.52511160714286  4.53425480769231 4.46819196428571  Z M 11.4573317307692 4.46819196428571  C 11.5114182692308 4.41127232142857  11.5384615384615 4.33854166666667  11.5384615384615 4.25  L 11.5384615384615 1.51785714285714  C 11.5384615384615 1.42931547619047  11.5114182692308 1.35658482142857  11.4573317307692 1.29966517857143  C 11.4032451923077 1.24274553571429  11.3341346153846 1.21428571428571  11.25 1.21428571428571  L 10.6730769230769 1.21428571428571  C 10.5889423076923 1.21428571428571  10.5198317307692 1.24274553571429  10.4657451923077 1.29966517857143  C 10.4116586538462 1.35658482142857  10.3846153846154 1.42931547619047  10.3846153846154 1.51785714285714  L 10.3846153846154 4.25  C 10.3846153846154 4.33854166666667  10.4116586538462 4.41127232142857  10.4657451923077 4.46819196428571  C 10.5198317307692 4.52511160714286  10.5889423076923 4.55357142857143  10.6730769230769 4.55357142857143  L 11.25 4.55357142857143  C 11.3341346153846 4.55357142857143  11.4032451923077 4.52511160714286  11.4573317307692 4.46819196428571  Z M 14.6574519230769 2.7890625  C 14.8858173076923 3.02938988095238  15 3.31398809523809  15 3.64285714285714  L 15 15.7857142857143  C 15 16.1145833333333  14.8858173076923 16.399181547619  14.6574519230769 16.6395089285714  C 14.4290865384615 16.8798363095238  14.1586538461538 17  13.8461538461538 17  L 1.15384615384615 17  C 0.841346153846154 17  0.570913461538462 16.8798363095238  0.342548076923077 16.6395089285714  C 0.114182692307692 16.399181547619  0 16.1145833333333  0 15.7857142857143  L 0 3.64285714285714  C 0 3.31398809523809  0.114182692307692 3.02938988095238  0.342548076923077 2.7890625  C 0.570913461538462 2.54873511904762  0.841346153846154 2.42857142857143  1.15384615384615 2.42857142857143  L 2.30769230769231 2.42857142857143  L 2.30769230769231 1.51785714285714  C 2.30769230769231 1.10044642857143  2.44891826923077 0.743117559523809  2.73137019230769 0.445870535714286  C 3.01382211538462 0.148623511904762  3.35336538461538 0  3.75 0  L 4.32692307692308 0  C 4.72355769230769 0  5.06310096153846 0.148623511904762  5.34555288461538 0.445870535714286  C 5.62800480769231 0.743117559523809  5.76923076923077 1.10044642857143  5.76923076923077 1.51785714285714  L 5.76923076923077 2.42857142857143  L 9.23076923076923 2.42857142857143  L 9.23076923076923 1.51785714285714  C 9.23076923076923 1.10044642857143  9.37199519230769 0.743117559523809  9.65444711538461 0.445870535714286  C 9.93689903846154 0.148623511904762  10.2764423076923 0  10.6730769230769 0  L 11.25 0  C 11.6466346153846 0  11.9861778846154 0.148623511904762  12.2686298076923 0.445870535714286  C 12.5510817307692 0.743117559523809  12.6923076923077 1.10044642857143  12.6923076923077 1.51785714285714  L 12.6923076923077 2.42857142857143  L 13.8461538461538 2.42857142857143  C 14.1586538461538 2.42857142857143  14.4290865384615 2.54873511904762  14.6574519230769 2.7890625  Z " fill-rule="nonzero" fill="#ffffff" stroke="none" transform="matrix(1 0 0 1 248 36 )" />
  </g>
</svg>