<?xml version="1.0" encoding="utf-8"?>
<svg version="1.1" xmlns:xlink="http://www.w3.org/1999/xlink" width="87px" height="87px" xmlns="http://www.w3.org/2000/svg">
  <defs>
    <filter x="173px" y="822px" width="87px" height="87px" filterUnits="userSpaceOnUse" id="filter32">
      <feOffset dx="1" dy="1" in="SourceAlpha" result="shadowOffsetInner" />
      <feGaussianBlur stdDeviation="2.5" in="shadowOffsetInner" result="shadowGaussian" />
      <feComposite in2="shadowGaussian" operator="atop" in="SourceAlpha" result="shadowComposite" />
      <feColorMatrix type="matrix" values="0 0 0 0 1  0 0 0 0 1  0 0 0 0 1  0 0 0 0.988235294117647 0  " in="shadowComposite" />
    </filter>
    <g id="widget33">
      <path d="M 215.5 826  C 237.06 826  254 842.94  254 864.5  C 254 886.06  237.06 903  215.5 903  C 193.94 903  177 886.06  177 864.5  C 177 842.94  193.94 826  215.5 826  Z " fill-rule="nonzero" fill="#ffffff" stroke="none" fill-opacity="0.764705882352941" />
      <path d="M 215.5 826.5  C 236.78 826.5  253.5 843.22  253.5 864.5  C 253.5 885.78  236.78 902.5  215.5 902.5  C 194.22 902.5  177.5 885.78  177.5 864.5  C 177.5 843.22  194.22 826.5  215.5 826.5  Z " stroke-width="1" stroke="#ffffff" fill="none" />
    </g>
  </defs>
  <g transform="matrix(1 0 0 1 -173 -822 )">
    <use xlink:href="#widget33" filter="url(#filter32)" />
    <use xlink:href="#widget33" />
  </g>
</svg>