<?xml version="1.0" encoding="utf-8"?>
<svg version="1.1" xmlns:xlink="http://www.w3.org/1999/xlink" width="110px" height="110px" xmlns="http://www.w3.org/2000/svg">
  <g transform="matrix(1 0 0 1 -54 -238 )">
    <path d="M 74.55078125 21.26953125  C 68.5828993055556 17.7842881944445  62.0659722222222 16.0416666666667  55 16.0416666666667  C 47.9340277777778 16.0416666666667  41.4171006944445 17.7842881944445  35.44921875 21.26953125  C 29.4813368055556 24.7547743055555  24.7547743055556 29.4813368055555  21.26953125 35.44921875  C 17.7842881944444 41.4171006944445  16.0416666666667 47.9340277777778  16.0416666666667 55  C 16.0416666666667 62.0659722222222  17.7842881944444 68.5828993055555  21.26953125 74.55078125  C 24.7547743055556 80.5186631944445  29.4813368055556 85.2452256944445  35.44921875 88.73046875  C 41.4171006944445 92.2157118055555  47.9340277777778 93.9583333333333  55 93.9583333333333  C 62.0659722222222 93.9583333333333  68.5828993055556 92.2157118055555  74.55078125 88.73046875  C 80.5186631944445 85.2452256944445  85.2452256944445 80.5186631944445  88.73046875 74.55078125  C 92.2157118055555 68.5828993055555  93.9583333333333 62.0659722222222  93.9583333333333 55  C 93.9583333333333 47.9340277777778  92.2157118055555 41.4171006944445  88.73046875 35.44921875  C 87.516351951007 33.3702516284367  86.1515958295178 31.4419238293696  84.6362003855323 29.6642353527986  C 81.8015024513919 26.3388922074955  78.4396960728811 23.5406575065626  74.55078125 21.26953125  Z M 102.623697916667 27.392578125  C 107.541232638889 35.8192274305555  110 45.0217013888889  110 55  C 110 64.9782986111111  107.541232638889 74.1807725694445  102.623697916667 82.607421875  C 97.7061631944445 91.0340711805555  91.0340711805555 97.7061631944445  82.607421875 102.623697916667  C 74.1807725694445 107.541232638889  64.9782986111111 110  55 110  C 45.0217013888889 110  35.8192274305556 107.541232638889  27.392578125 102.623697916667  C 18.9659288194444 97.7061631944445  12.2938368055556 91.0340711805555  7.37630208333334 82.607421875  C 2.45876736111111 74.1807725694445  0 64.9782986111111  0 55  C 0 45.0217013888889  2.45876736111111 35.8192274305555  7.37630208333334 27.392578125  C 12.2938368055556 18.9659288194445  18.9659288194444 12.2938368055555  27.392578125 7.37630208333334  C 35.8192274305556 2.45876736111111  45.0217013888889 0  55 0  C 64.9782986111111 0  74.1807725694445 2.45876736111111  82.607421875 7.37630208333334  C 91.0340711805555 12.2938368055555  97.7061631944445 18.9659288194445  102.623697916667 27.392578125  Z " fill-rule="nonzero" fill="#50ff76" stroke="none" transform="matrix(1 0 0 1 54 238 )" />
  </g>
</svg>