<?xml version="1.0" encoding="utf-8"?>
<svg version="1.1" xmlns:xlink="http://www.w3.org/1999/xlink" width="45px" height="45px" xmlns="http://www.w3.org/2000/svg">
  <g transform="matrix(1 0 0 1 -85 -271 )">
    <path d="M 25.986328125 11.513671875  C 26.162109375 11.689453125  26.25 11.9140625  26 12.1875  L 26 25.3125  C 26.25 25.5859375  26.162109375 25.810546875  25.986328125 25.986328125  C 25.810546875 26.162109375  25.5859375 26.25  25.3125 26.25  L 15.9375 26.25  C 15.6640625 26.25  15.439453125 26.162109375  15.263671875 25.986328125  C 15.087890625 25.810546875  15 25.5859375  15 25.3125  L 15 23.4375  C 15 23.1640625  15.087890625 22.939453125  15.263671875 22.763671875  C 15.439453125 22.587890625  15.6640625 22.5  15.9375 22.5  L 22 22.5  L 22 12.1875  C 22.5 11.9140625  22.587890625 11.689453125  22.763671875 11.513671875  C 22.939453125 11.337890625  23.1640625 11.25  23.4375 11.25  L 25.3125 11.25  C 25.5859375 11.25  25.810546875 11.337890625  25.986328125 11.513671875  Z M 36.298828125 30.498046875  C 37.724609375 28.056640625  38.4375 25.390625  38.4375 22.5  C 38.4375 19.609375  37.724609375 16.943359375  36.298828125 14.501953125  C 34.873046875 12.060546875  32.939453125 10.126953125  30.498046875 8.701171875  C 28.056640625 7.275390625  25.390625 6.5625  22.5 6.5625  C 19.609375 6.5625  16.943359375 7.275390625  14.501953125 8.701171875  C 12.060546875 10.126953125  10.126953125 12.060546875  8.701171875 14.501953125  C 7.275390625 16.943359375  6.5625 19.609375  6.5625 22.5  C 6.5625 25.390625  7.275390625 28.056640625  8.701171875 30.498046875  C 10.126953125 32.939453125  12.060546875 34.873046875  14.501953125 36.298828125  C 16.943359375 37.724609375  19.609375 38.4375  22.5 38.4375  C 25.390625 38.4375  28.056640625 37.724609375  30.498046875 36.298828125  C 32.939453125 34.873046875  34.873046875 32.939453125  36.298828125 30.498046875  Z M 41.982421875 11.2060546875  C 43.994140625 14.6533203125  45 18.41796875  45 22.5  C 45 26.58203125  43.994140625 30.3466796875  41.982421875 33.7939453125  C 39.970703125 37.2412109375  37.2412109375 39.970703125  33.7939453125 41.982421875  C 30.3466796875 43.994140625  26.58203125 45  22.5 45  C 18.41796875 45  14.6533203125 43.994140625  11.2060546875 41.982421875  C 7.7587890625 39.970703125  5.029296875 37.2412109375  3.017578125 33.7939453125  C 1.005859375 30.3466796875  0 26.58203125  0 22.5  C 0 18.41796875  1.005859375 14.6533203125  3.017578125 11.2060546875  C 5.029296875 7.7587890625  7.7587890625 5.029296875  11.2060546875 3.017578125  C 14.6533203125 1.005859375  18.41796875 0  22.5 0  C 26.58203125 0  30.3466796875 1.005859375  33.7939453125 3.017578125  C 37.2412109375 5.029296875  39.970703125 7.7587890625  41.982421875 11.2060546875  Z " fill-rule="nonzero" fill="#727272" stroke="none" transform="matrix(1 0 0 1 85 271 )" />
  </g>
</svg>